<mxfile host="app.diagrams.net" modified="2021-06-07T06:38:46.955Z" agent="5.0 (Windows NT 10.0; Win64; x64) AppleWebKit/537.36 (KHTML, like Gecko) Chrome/90.0.4430.212 Safari/537.36" etag="4r9FrPh-blv5lBb3mP1F" version="14.7.6" type="github">
  <diagram id="QjUY8rd6lTutOXnf1ftp" name="Page-1">
    <mxGraphModel dx="1038" dy="580" grid="1" gridSize="10" guides="1" tooltips="1" connect="1" arrows="1" fold="1" page="1" pageScale="1" pageWidth="827" pageHeight="1169" math="0" shadow="0">
      <root>
        <mxCell id="0" />
        <mxCell id="1" parent="0" />
        <mxCell id="_9kBscbex0TnuzICBj4Y-4" value="&lt;font style=&quot;font-size: 18px&quot;&gt;Cluster&lt;/font&gt;" style="rounded=1;whiteSpace=wrap;html=1;absoluteArcSize=1;arcSize=14;strokeWidth=2;fillColor=#d5e8d4;strokeColor=#82b366;" vertex="1" parent="1">
          <mxGeometry x="50" y="120" width="50" height="260" as="geometry" />
        </mxCell>
        <mxCell id="_9kBscbex0TnuzICBj4Y-5" value="" style="rounded=1;whiteSpace=wrap;html=1;absoluteArcSize=1;arcSize=14;strokeWidth=2;strokeColor=#66FF66;" vertex="1" parent="1">
          <mxGeometry x="140" y="200" width="160" height="100" as="geometry" />
        </mxCell>
        <mxCell id="_9kBscbex0TnuzICBj4Y-8" value="R0" style="rounded=1;whiteSpace=wrap;html=1;absoluteArcSize=1;arcSize=14;strokeWidth=2;strokeColor=#E1D5E7;" vertex="1" parent="1">
          <mxGeometry x="160" y="240" width="50" height="50" as="geometry" />
        </mxCell>
        <mxCell id="_9kBscbex0TnuzICBj4Y-9" value="" style="rounded=1;whiteSpace=wrap;html=1;absoluteArcSize=1;arcSize=14;strokeWidth=2;strokeColor=#66FF66;" vertex="1" parent="1">
          <mxGeometry x="334" y="200" width="160" height="100" as="geometry" />
        </mxCell>
        <mxCell id="_9kBscbex0TnuzICBj4Y-10" value="" style="rounded=1;whiteSpace=wrap;html=1;absoluteArcSize=1;arcSize=14;strokeWidth=2;strokeColor=#66FF66;" vertex="1" parent="1">
          <mxGeometry x="530" y="200" width="160" height="100" as="geometry" />
        </mxCell>
        <mxCell id="_9kBscbex0TnuzICBj4Y-12" value="P1" style="rounded=1;whiteSpace=wrap;html=1;absoluteArcSize=1;arcSize=14;strokeWidth=2;strokeColor=#6c8ebf;fillColor=#dae8fc;" vertex="1" parent="1">
          <mxGeometry x="230" y="240" width="50" height="50" as="geometry" />
        </mxCell>
        <mxCell id="_9kBscbex0TnuzICBj4Y-13" value="R0" style="rounded=1;whiteSpace=wrap;html=1;absoluteArcSize=1;arcSize=14;strokeWidth=2;strokeColor=#E1D5E7;" vertex="1" parent="1">
          <mxGeometry x="360" y="240" width="50" height="50" as="geometry" />
        </mxCell>
        <mxCell id="_9kBscbex0TnuzICBj4Y-14" value="R1" style="rounded=1;whiteSpace=wrap;html=1;absoluteArcSize=1;arcSize=14;strokeWidth=2;strokeColor=#E1D5E7;" vertex="1" parent="1">
          <mxGeometry x="430" y="240" width="50" height="50" as="geometry" />
        </mxCell>
        <mxCell id="_9kBscbex0TnuzICBj4Y-32" value="" style="edgeStyle=orthogonalEdgeStyle;rounded=0;orthogonalLoop=1;jettySize=auto;html=1;" edge="1" parent="1" source="_9kBscbex0TnuzICBj4Y-15" target="_9kBscbex0TnuzICBj4Y-8">
          <mxGeometry relative="1" as="geometry">
            <Array as="points">
              <mxPoint x="575" y="140" />
              <mxPoint x="185" y="140" />
            </Array>
          </mxGeometry>
        </mxCell>
        <mxCell id="_9kBscbex0TnuzICBj4Y-35" value="3" style="edgeLabel;html=1;align=center;verticalAlign=middle;resizable=0;points=[];" vertex="1" connectable="0" parent="_9kBscbex0TnuzICBj4Y-32">
          <mxGeometry x="0.0393" y="-1" relative="1" as="geometry">
            <mxPoint as="offset" />
          </mxGeometry>
        </mxCell>
        <mxCell id="_9kBscbex0TnuzICBj4Y-33" value="" style="edgeStyle=orthogonalEdgeStyle;rounded=0;orthogonalLoop=1;jettySize=auto;html=1;entryX=0.5;entryY=1;entryDx=0;entryDy=0;" edge="1" parent="1" source="_9kBscbex0TnuzICBj4Y-15" target="_9kBscbex0TnuzICBj4Y-13">
          <mxGeometry relative="1" as="geometry">
            <Array as="points">
              <mxPoint x="560" y="320" />
              <mxPoint x="385" y="320" />
            </Array>
          </mxGeometry>
        </mxCell>
        <mxCell id="_9kBscbex0TnuzICBj4Y-34" value="3" style="edgeLabel;html=1;align=center;verticalAlign=middle;resizable=0;points=[];" vertex="1" connectable="0" parent="_9kBscbex0TnuzICBj4Y-33">
          <mxGeometry x="0.103" y="4" relative="1" as="geometry">
            <mxPoint as="offset" />
          </mxGeometry>
        </mxCell>
        <mxCell id="_9kBscbex0TnuzICBj4Y-15" value="P0" style="rounded=1;whiteSpace=wrap;html=1;absoluteArcSize=1;arcSize=14;strokeWidth=2;strokeColor=#6c8ebf;fillColor=#dae8fc;" vertex="1" parent="1">
          <mxGeometry x="550" y="240" width="50" height="50" as="geometry" />
        </mxCell>
        <mxCell id="_9kBscbex0TnuzICBj4Y-16" value="R1" style="rounded=1;whiteSpace=wrap;html=1;absoluteArcSize=1;arcSize=14;strokeWidth=2;strokeColor=#E1D5E7;" vertex="1" parent="1">
          <mxGeometry x="620" y="240" width="50" height="50" as="geometry" />
        </mxCell>
        <mxCell id="_9kBscbex0TnuzICBj4Y-18" value="NODE1-â˜†Master" style="rounded=1;whiteSpace=wrap;html=1;absoluteArcSize=1;arcSize=14;strokeWidth=2;strokeColor=#FFFFFF;fillColor=none;" vertex="1" parent="1">
          <mxGeometry x="160" y="210" width="130" height="20" as="geometry" />
        </mxCell>
        <mxCell id="_9kBscbex0TnuzICBj4Y-20" value="NODE2" style="rounded=1;whiteSpace=wrap;html=1;absoluteArcSize=1;arcSize=14;strokeWidth=2;strokeColor=#FFFFFF;fillColor=none;" vertex="1" parent="1">
          <mxGeometry x="348.5" y="210" width="130" height="20" as="geometry" />
        </mxCell>
        <mxCell id="_9kBscbex0TnuzICBj4Y-21" value="NODE3" style="rounded=1;whiteSpace=wrap;html=1;absoluteArcSize=1;arcSize=14;strokeWidth=2;strokeColor=#FFFFFF;fillColor=none;" vertex="1" parent="1">
          <mxGeometry x="545" y="210" width="130" height="20" as="geometry" />
        </mxCell>
        <mxCell id="_9kBscbex0TnuzICBj4Y-26" value="1" style="edgeStyle=elbowEdgeStyle;elbow=vertical;endArrow=classic;html=1;entryX=0.25;entryY=1;entryDx=0;entryDy=0;" edge="1" parent="1" target="_9kBscbex0TnuzICBj4Y-12">
          <mxGeometry width="50" height="50" relative="1" as="geometry">
            <mxPoint x="140" y="340" as="sourcePoint" />
            <mxPoint x="260" y="320" as="targetPoint" />
            <Array as="points">
              <mxPoint x="240" y="320" />
            </Array>
          </mxGeometry>
        </mxCell>
        <mxCell id="_9kBscbex0TnuzICBj4Y-27" value="" style="edgeStyle=elbowEdgeStyle;elbow=vertical;endArrow=classic;html=1;entryX=0.5;entryY=1;entryDx=0;entryDy=0;" edge="1" parent="1" source="_9kBscbex0TnuzICBj4Y-12" target="_9kBscbex0TnuzICBj4Y-15">
          <mxGeometry width="50" height="50" relative="1" as="geometry">
            <mxPoint x="284" y="330" as="sourcePoint" />
            <mxPoint x="580" y="300" as="targetPoint" />
            <Array as="points">
              <mxPoint x="400" y="340" />
              <mxPoint x="540" y="350" />
            </Array>
          </mxGeometry>
        </mxCell>
        <mxCell id="_9kBscbex0TnuzICBj4Y-28" value="2" style="edgeLabel;html=1;align=center;verticalAlign=middle;resizable=0;points=[];" vertex="1" connectable="0" parent="_9kBscbex0TnuzICBj4Y-27">
          <mxGeometry x="-0.386" y="1" relative="1" as="geometry">
            <mxPoint as="offset" />
          </mxGeometry>
        </mxCell>
      </root>
    </mxGraphModel>
  </diagram>
</mxfile>
